<svg width="14" height="14" viewBox="0 0 14 14" fill="none" xmlns="http://www.w3.org/2000/svg">
<path d="M7.76185 9.22335C7.36283 9.68978 6.64168 9.68996 6.24242 9.22374L2.46842 4.81674C2.38183 4.71461 2.33325 4.57668 2.33325 4.43294C2.33325 4.2892 2.38183 4.15127 2.46842 4.04914C2.51148 3.99849 2.56269 3.95827 2.6191 3.93081C2.67551 3.90335 2.73601 3.88919 2.79713 3.88914C2.85824 3.88909 2.91876 3.90315 2.9752 3.93052C3.03165 3.95789 3.08291 3.99802 3.12603 4.0486L7.00143 8.57377L10.8736 4.0486C10.9166 3.998 10.9678 3.95784 11.0242 3.93043C11.0806 3.90302 11.1411 3.88892 11.2021 3.88892C11.2632 3.88892 11.3237 3.90302 11.3801 3.93043C11.4365 3.95784 11.4877 3.998 11.5307 4.0486C11.6176 4.15061 11.6664 4.28857 11.6666 4.43245C11.6668 4.57632 11.6183 4.71444 11.5316 4.81674L7.76185 9.22335Z" fill="white"/>
</svg>
