<svg width="24" height="24" viewBox="0 0 24 24" fill="none" xmlns="http://www.w3.org/2000/svg">
<path d="M21.8846 12.55H16.3956C16.3164 16.499 15.4056 19.8991 14.0933 21.6789C16.212 21.2195 18.1215 20.0778 19.5289 18.4288C20.9363 16.7798 21.7639 14.7146 21.8846 12.55ZM21.8846 11.45C21.7639 9.28542 20.9363 7.22023 19.5289 5.57122C18.1215 3.92221 16.212 2.78045 14.0933 2.3211C15.4067 4.1009 16.3164 7.5021 16.3945 11.45H21.8846ZM2.1154 11.45H7.6044C7.6836 7.501 8.5944 4.1009 9.9067 2.3211C7.78798 2.78045 5.87847 3.92221 4.47108 5.57122C3.06368 7.22023 2.23614 9.28542 2.1154 11.45ZM2.1154 12.55C2.23614 14.7146 3.06368 16.7798 4.47108 18.4288C5.87847 20.0778 7.78798 21.2195 9.9067 21.6789C8.5933 19.8991 7.6836 16.4979 7.6055 12.55H2.1154ZM15.2934 12.55H8.7066C8.8166 17.8058 10.5051 21.9 12 21.9C13.496 21.9 15.1834 17.8058 15.2945 12.55H15.2934ZM15.2934 11.45C15.1845 6.1942 13.496 2.1 12 2.1C10.504 2.1 8.8166 6.1942 8.7055 11.45H15.2945H15.2934ZM12 23C5.9247 23 1 18.0753 1 12C1 5.9247 5.9247 1 12 1C18.0753 1 23 5.9247 23 12C23 18.0753 18.0753 23 12 23Z" fill="#9A9CA6" stroke="#9A9CA6" stroke-width="0.6"/>
</svg>