<svg width="24" height="32" viewBox="0 0 24 32" fill="none" xmlns="http://www.w3.org/2000/svg">
<path d="M18 0H6C4.34315 0 3 1.34315 3 3V12C3 13.6569 4.34315 15 6 15H18C19.6569 15 21 13.6569 21 12V3C21 1.34315 19.6569 0 18 0Z" fill="#F48481"/>
<mask id="mask0_4060_14564" style="mask-type:luminance" maskUnits="userSpaceOnUse" x="3" y="0" width="18" height="15">
<path d="M18 0H6C4.34315 0 3 1.34315 3 3V12C3 13.6569 4.34315 15 6 15H18C19.6569 15 21 13.6569 21 12V3C21 1.34315 19.6569 0 18 0Z" fill="white"/>
</mask>
<g mask="url(#mask0_4060_14564)">
<path d="M11 -1H7V15H11V-1Z" fill="#FFF5EB"/>
</g>
<mask id="mask1_4060_14564" style="mask-type:luminance" maskUnits="userSpaceOnUse" x="3" y="0" width="18" height="15">
<path d="M18 0H6C4.34315 0 3 1.34315 3 3V12C3 13.6569 4.34315 15 6 15H18C19.6569 15 21 13.6569 21 12V3C21 1.34315 19.6569 0 18 0Z" fill="white"/>
</mask>
<g mask="url(#mask1_4060_14564)">
<path d="M17 -1H13V15H17V-1Z" fill="#FFF5EB"/>
</g>
<path d="M12 30.3999C18.6274 30.3999 24 25.0273 24 18.3999C24 11.7725 18.6274 6.3999 12 6.3999C5.37258 6.3999 0 11.7725 0 18.3999C0 25.0273 5.37258 30.3999 12 30.3999Z" fill="url(#paint0_linear_4060_14564)"/>
<path d="M12 27.6001C16.9706 27.6001 21 23.5707 21 18.6001C21 13.6295 16.9706 9.6001 12 9.6001C7.02944 9.6001 3 13.6295 3 18.6001C3 23.5707 7.02944 27.6001 12 27.6001Z" fill="#E8795B"/>
<path d="M11.1927 17.5392C11.4074 17.5591 11.636 17.5591 11.8787 17.5392C12.1214 17.5193 12.3454 17.4645 12.5507 17.3749C12.7654 17.2754 12.938 17.136 13.0687 16.9568C13.2087 16.7776 13.2787 16.5387 13.2787 16.24C13.2787 15.792 13.1387 15.4485 12.8587 15.2096C12.5787 14.9707 12.2567 14.8512 11.8927 14.8512C11.3887 14.8512 11.006 15.0304 10.7447 15.3888C10.4927 15.7372 10.3714 16.1803 10.3807 16.7179H8.49069C8.50936 16.1803 8.59802 15.6924 8.75669 15.2544C8.92469 14.8064 9.15336 14.4231 9.44269 14.1045C9.74136 13.786 10.096 13.542 10.5067 13.3728C10.9174 13.1936 11.3747 13.104 11.8787 13.104C12.2707 13.104 12.6627 13.1687 13.0547 13.2981C13.4467 13.4176 13.7967 13.6018 14.1047 13.8507C14.422 14.0996 14.6787 14.4032 14.8747 14.7616C15.0707 15.12 15.1687 15.5332 15.1687 16.0011C15.1687 16.5088 15.052 16.9568 14.8187 17.3451C14.5947 17.7333 14.254 17.9972 13.7967 18.1365V18.1664C14.338 18.2958 14.7627 18.5746 15.0707 19.0027C15.3787 19.4308 15.5327 19.9435 15.5327 20.5408C15.5327 21.0884 15.43 21.5762 15.2247 22.0043C15.0287 22.4324 14.7627 22.7908 14.4267 23.0795C14.0907 23.3682 13.7034 23.5872 13.2647 23.7365C12.826 23.8859 12.3687 23.9605 11.8927 23.9605C11.342 23.9605 10.838 23.8759 10.3807 23.7067C9.93269 23.5374 9.55002 23.2935 9.23269 22.9749C8.91536 22.6464 8.66802 22.2482 8.49069 21.7803C8.32269 21.3124 8.24336 20.7748 8.25269 20.1675H10.1427C10.152 20.4462 10.194 20.715 10.2687 20.9739C10.3434 21.2228 10.4507 21.4418 10.5907 21.6309C10.7307 21.8101 10.9034 21.9545 11.1087 22.064C11.3234 22.1735 11.5754 22.2283 11.8647 22.2283C12.3127 22.2283 12.6907 22.0839 12.9987 21.7952C13.3067 21.4965 13.4607 21.0933 13.4607 20.5856C13.4607 20.1874 13.386 19.8837 13.2367 19.6747C13.0967 19.4656 12.9147 19.3163 12.6907 19.2267C12.4667 19.1271 12.2194 19.0724 11.9487 19.0624C11.6874 19.0425 11.4354 19.0325 11.1927 19.0325V17.5392Z" fill="white"/>
<defs>
<linearGradient id="paint0_linear_4060_14564" x1="1200" y1="6.3999" x2="1200" y2="2406.4" gradientUnits="userSpaceOnUse">
<stop stop-color="#FFC6AD"/>
<stop offset="1" stop-color="#FF9475"/>
</linearGradient>
</defs>
</svg>
