<svg width="24" height="32" viewBox="0 0 24 32" fill="none" xmlns="http://www.w3.org/2000/svg">
<path d="M18 0H6C4.34315 0 3 1.34315 3 3V12C3 13.6569 4.34315 15 6 15H18C19.6569 15 21 13.6569 21 12V3C21 1.34315 19.6569 0 18 0Z" fill="#F48481"/>
<mask id="mask0_4060_14549" style="mask-type:luminance" maskUnits="userSpaceOnUse" x="3" y="0" width="18" height="15">
<path d="M18 0H6C4.34315 0 3 1.34315 3 3V12C3 13.6569 4.34315 15 6 15H18C19.6569 15 21 13.6569 21 12V3C21 1.34315 19.6569 0 18 0Z" fill="white"/>
</mask>
<g mask="url(#mask0_4060_14549)">
<path d="M11 -1H7V15H11V-1Z" fill="#FFF5EB"/>
</g>
<mask id="mask1_4060_14549" style="mask-type:luminance" maskUnits="userSpaceOnUse" x="3" y="0" width="18" height="15">
<path d="M18 0H6C4.34315 0 3 1.34315 3 3V12C3 13.6569 4.34315 15 6 15H18C19.6569 15 21 13.6569 21 12V3C21 1.34315 19.6569 0 18 0Z" fill="white"/>
</mask>
<g mask="url(#mask1_4060_14549)">
<path d="M17 -1H13V15H17V-1Z" fill="#FFF5EB"/>
</g>
<path d="M12 30.3999C18.6274 30.3999 24 25.0273 24 18.3999C24 11.7725 18.6274 6.3999 12 6.3999C5.37258 6.3999 0 11.7725 0 18.3999C0 25.0273 5.37258 30.3999 12 30.3999Z" fill="url(#paint0_linear_4060_14549)"/>
<path d="M12 27.3335C16.9706 27.3335 21 23.3041 21 18.3335C21 13.3629 16.9706 9.3335 12 9.3335C7.02944 9.3335 3 13.3629 3 18.3335C3 23.3041 7.02944 27.3335 12 27.3335Z" fill="#A9B0B6"/>
<path d="M8.51843 17.3301C8.49977 16.7328 8.5651 16.1803 8.71443 15.6725C8.86377 15.1548 9.08777 14.7068 9.38643 14.3285C9.6851 13.9403 10.0584 13.6416 10.5064 13.4325C10.9638 13.2135 11.4864 13.104 12.0744 13.104C12.5224 13.104 12.9471 13.1787 13.3484 13.328C13.7591 13.4773 14.1184 13.6914 14.4264 13.9701C14.7344 14.2489 14.9771 14.5924 15.1544 15.0005C15.3411 15.4087 15.4344 15.8667 15.4344 16.3744C15.4344 16.902 15.3551 17.355 15.1964 17.7333C15.0378 18.1116 14.8278 18.4501 14.5664 18.7488C14.3051 19.0375 14.0064 19.3013 13.6704 19.5403C13.3438 19.7792 13.0124 20.0181 12.6764 20.2571C12.3404 20.486 12.0138 20.7349 11.6964 21.0037C11.3791 21.2725 11.0991 21.5861 10.8564 21.9445H15.4904V23.7664H8.29443C8.29443 23.1591 8.37377 22.6315 8.53243 22.1835C8.70043 21.7355 8.92443 21.3372 9.20443 20.9888C9.48443 20.6304 9.8111 20.3019 10.1844 20.0032C10.5671 19.7045 10.9684 19.4009 11.3884 19.0923C11.6031 18.933 11.8318 18.7737 12.0744 18.6144C12.3171 18.4452 12.5364 18.261 12.7324 18.0619C12.9378 17.8628 13.1058 17.6388 13.2364 17.3899C13.3764 17.141 13.4464 16.8572 13.4464 16.5387C13.4464 16.0309 13.3064 15.6377 13.0264 15.3589C12.7558 15.0702 12.4058 14.9259 11.9764 14.9259C11.6871 14.9259 11.4398 15.0005 11.2344 15.1499C11.0384 15.2892 10.8798 15.4784 10.7584 15.7173C10.6371 15.9463 10.5484 16.2052 10.4924 16.4939C10.4458 16.7726 10.4224 17.0514 10.4224 17.3301H8.51843Z" fill="white"/>
<defs>
<linearGradient id="paint0_linear_4060_14549" x1="1200" y1="6.3999" x2="1200" y2="2406.4" gradientUnits="userSpaceOnUse">
<stop stop-color="#DDE2E8"/>
<stop offset="1" stop-color="#BFC3C9"/>
</linearGradient>
</defs>
</svg>
