<svg width="23" height="30" viewBox="0 0 23 30" fill="none" xmlns="http://www.w3.org/2000/svg">
<path d="M16.875 0.9375H5.625C4.0717 0.9375 2.8125 2.1967 2.8125 3.75V12.1875C2.8125 13.7408 4.0717 15 5.625 15H16.875C18.4283 15 19.6875 13.7408 19.6875 12.1875V3.75C19.6875 2.1967 18.4283 0.9375 16.875 0.9375Z" fill="#F48481"/>
<mask id="mask0_4060_14534" style="mask-type:luminance" maskUnits="userSpaceOnUse" x="2" y="0" width="18" height="15">
<path d="M16.875 0.9375H5.625C4.0717 0.9375 2.8125 2.1967 2.8125 3.75V12.1875C2.8125 13.7408 4.0717 15 5.625 15H16.875C18.4283 15 19.6875 13.7408 19.6875 12.1875V3.75C19.6875 2.1967 18.4283 0.9375 16.875 0.9375Z" fill="white"/>
</mask>
<g mask="url(#mask0_4060_14534)">
<path d="M10.3125 0H6.5625V15H10.3125V0Z" fill="#FFF5EB"/>
</g>
<mask id="mask1_4060_14534" style="mask-type:luminance" maskUnits="userSpaceOnUse" x="2" y="0" width="18" height="15">
<path d="M16.875 0.9375H5.625C4.0717 0.9375 2.8125 2.1967 2.8125 3.75V12.1875C2.8125 13.7408 4.0717 15 5.625 15H16.875C18.4283 15 19.6875 13.7408 19.6875 12.1875V3.75C19.6875 2.1967 18.4283 0.9375 16.875 0.9375Z" fill="white"/>
</mask>
<g mask="url(#mask1_4060_14534)">
<path d="M15.9375 0H12.1875V15H15.9375V0Z" fill="#FFF5EB"/>
</g>
<path d="M11.25 29.0625C17.4632 29.0625 22.5 24.0257 22.5 17.8125C22.5 11.5993 17.4632 6.5625 11.25 6.5625C5.0368 6.5625 0 11.5993 0 17.8125C0 24.0257 5.0368 29.0625 11.25 29.0625Z" fill="url(#paint0_linear_4060_14534)"/>
<path d="M11.25 26.25C15.9099 26.25 19.6875 22.4724 19.6875 17.8125C19.6875 13.1526 15.9099 9.375 11.25 9.375C6.5901 9.375 2.8125 13.1526 2.8125 17.8125C2.8125 22.4724 6.5901 26.25 11.25 26.25Z" fill="#FEB300"/>
<path d="M12.6454 21.8262H10.7817V15.8674H8.47168V14.463C8.79543 14.4718 9.10605 14.4499 9.40355 14.3974C9.7098 14.3362 9.98105 14.2355 10.2173 14.0955C10.4623 13.9468 10.6679 13.7543 10.8342 13.518C11.0004 13.2818 11.1098 12.9887 11.1623 12.6387H12.6454V21.8262Z" fill="white"/>
<defs>
<linearGradient id="paint0_linear_4060_14534" x1="1125" y1="6.5625" x2="1125" y2="2256.56" gradientUnits="userSpaceOnUse">
<stop stop-color="#F3E40F"/>
<stop offset="1" stop-color="#FEE300"/>
</linearGradient>
</defs>
</svg>
